<svg width="30" height="50" viewBox="0 0 30 50" fill="none" xmlns="http://www.w3.org/2000/svg">
<path d="M0.585938 45.625L5.03906 49.9609L30 25L5.03906 0.0390625L0.585938 4.375L21.0938 25L0.585938 45.625Z" fill="url(#paint0_linear_457_823)"/>
<path d="M0.585938 45.625L-0.47774 44.5674C-0.760163 44.8514 -0.917254 45.2366 -0.914014 45.6371C-0.910772 46.0377 -0.74747 46.4203 -0.460487 46.6997L0.585938 45.625ZM5.03906 49.9609L3.99264 51.0356C4.58059 51.6081 5.51945 51.6019 6.09972 51.0216L5.03906 49.9609ZM30 25L31.0607 26.0607C31.6464 25.4749 31.6464 24.5251 31.0607 23.9393L30 25ZM5.03906 0.0390625L6.09972 -1.0216C5.51945 -1.60187 4.58059 -1.60813 3.99264 -1.03564L5.03906 0.0390625ZM0.585938 4.375L-0.460487 3.30029C-0.74747 3.57972 -0.910772 3.96233 -0.914014 4.36286C-0.917254 4.7634 -0.760163 5.1486 -0.47774 5.43263L0.585938 4.375ZM21.0938 25L22.1574 26.0576C22.7392 25.4725 22.7392 24.5275 22.1574 23.9424L21.0938 25ZM-0.460487 46.6997L3.99264 51.0356L6.08549 48.8862L1.63236 44.5503L-0.460487 46.6997ZM6.09972 51.0216L31.0607 26.0607L28.9393 23.9393L3.9784 48.9003L6.09972 51.0216ZM31.0607 23.9393L6.09972 -1.0216L3.9784 1.09972L28.9393 26.0607L31.0607 23.9393ZM3.99264 -1.03564L-0.460487 3.30029L1.63236 5.44971L6.08549 1.11377L3.99264 -1.03564ZM-0.47774 5.43263L20.0301 26.0576L22.1574 23.9424L1.64961 3.31737L-0.47774 5.43263ZM20.0301 23.9424L-0.47774 44.5674L1.64961 46.6826L22.1574 26.0576L20.0301 23.9424Z" fill="url(#paint1_linear_457_823)"/>
<defs>
<linearGradient id="paint0_linear_457_823" x1="-15" y1="24.5238" x2="47.1154" y2="24.5238" gradientUnits="userSpaceOnUse">
<stop stop-color="#3D966F"/>
<stop offset="1" stop-color="#81B94D"/>
</linearGradient>
<linearGradient id="paint1_linear_457_823" x1="-15" y1="24.5238" x2="47.1154" y2="24.5238" gradientUnits="userSpaceOnUse">
<stop stop-color="#3D966F"/>
<stop offset="1" stop-color="#81B94D"/>
</linearGradient>
</defs>
</svg>
