<svg width="12" height="20" viewBox="0 0 12 20" fill="none" xmlns="http://www.w3.org/2000/svg">
<path d="M0.234375 18.25L2.01562 19.9844L12 10L2.01562 0.015625L0.234375 1.75L8.4375 10L0.234375 18.25Z" fill="white"/>
<path d="M0.234375 18.25L-0.474743 17.5449C-0.663026 17.7343 -0.767753 17.9911 -0.765592 18.2581C-0.763432 18.5251 -0.654563 18.7802 -0.463242 18.9665L0.234375 18.25ZM2.01562 19.9844L1.31801 20.7008C1.70998 21.0825 2.33588 21.0783 2.72273 20.6915L2.01562 19.9844ZM12 10L12.7071 10.7071C13.0976 10.3166 13.0976 9.68342 12.7071 9.29289L12 10ZM2.01562 0.015625L2.72273 -0.691482C2.33588 -1.07833 1.70998 -1.0825 1.31801 -0.700846L2.01562 0.015625ZM0.234375 1.75L-0.463242 1.03353C-0.654563 1.21982 -0.763432 1.47488 -0.765592 1.74191C-0.767753 2.00893 -0.663026 2.26573 -0.474743 2.45509L0.234375 1.75ZM8.4375 10L9.14662 10.7051C9.53446 10.315 9.53446 9.68497 9.14662 9.29491L8.4375 10ZM-0.463242 18.9665L1.31801 20.7008L2.71324 19.2679L0.931992 17.5335L-0.463242 18.9665ZM2.72273 20.6915L12.7071 10.7071L11.2929 9.29289L1.30852 19.2773L2.72273 20.6915ZM12.7071 9.29289L2.72273 -0.691482L1.30852 0.722732L11.2929 10.7071L12.7071 9.29289ZM1.31801 -0.700846L-0.463242 1.03353L0.931992 2.46647L2.71324 0.732096L1.31801 -0.700846ZM-0.474743 2.45509L7.72838 10.7051L9.14662 9.29491L0.943493 1.04491L-0.474743 2.45509ZM7.72838 9.29491L-0.474743 17.5449L0.943493 18.9551L9.14662 10.7051L7.72838 9.29491Z" fill="white"/>
</svg>
