<svg width="12" height="20" viewBox="0 0 12 20" fill="none" xmlns="http://www.w3.org/2000/svg">
<path d="M11.6719 1.89062L3.5625 10L11.6719 18.1094L9.89062 19.8906L0 10L9.89062 0.109375L11.6719 1.89062Z" fill="white"/>
<path d="M11.6719 1.89062L12.379 2.59773C12.7695 2.20721 12.7695 1.57404 12.379 1.18352L11.6719 1.89062ZM3.5625 10L2.85539 9.29289C2.46487 9.68342 2.46487 10.3166 2.85539 10.7071L3.5625 10ZM11.6719 18.1094L12.379 18.8165C12.7695 18.426 12.7695 17.7928 12.379 17.4023L11.6719 18.1094ZM9.89062 19.8906L9.18352 20.5977C9.57404 20.9883 10.2072 20.9883 10.5977 20.5977L9.89062 19.8906ZM0 10L-0.707107 9.29289C-1.09763 9.68342 -1.09763 10.3166 -0.707107 10.7071L0 10ZM9.89062 0.109375L10.5977 -0.597732C10.2072 -0.988256 9.57404 -0.988256 9.18352 -0.597732L9.89062 0.109375ZM10.9648 1.18352L2.85539 9.29289L4.26961 10.7071L12.379 2.59773L10.9648 1.18352ZM2.85539 10.7071L10.9648 18.8165L12.379 17.4023L4.26961 9.29289L2.85539 10.7071ZM10.9648 17.4023L9.18352 19.1835L10.5977 20.5977L12.379 18.8165L10.9648 17.4023ZM10.5977 19.1835L0.707107 9.29289L-0.707107 10.7071L9.18352 20.5977L10.5977 19.1835ZM0.707107 10.7071L10.5977 0.816482L9.18352 -0.597732L-0.707107 9.29289L0.707107 10.7071ZM9.18352 0.816482L10.9648 2.59773L12.379 1.18352L10.5977 -0.597732L9.18352 0.816482Z" fill="white"/>
</svg>
